<svg xmlns="http://www.w3.org/2000/svg" xmlns:rdkit="http://www.rdkit.org/xml" xmlns:xlink="http://www.w3.org/1999/xlink" version="1.1" baseProfile="full" xml:space="preserve" width="400px" height="200px" viewBox="0 0 400 200">
<!-- END OF HEADER -->
<rect style="opacity:1.0;fill:#FFFFFF;stroke:none" width="400.0" height="200.0" x="0.0" y="0.0"> </rect>
<ellipse cx="200.0" cy="100.0" rx="59.5" ry="59.5" class="atom-0" style="fill:#1F77B4A5;fill-rule:evenodd;stroke:#1F77B4A5;stroke-width:1.0px;stroke-linecap:butt;stroke-linejoin:miter;stroke-opacity:1"/>
<path class="atom-0" d="M 166.1 93.0 Q 166.1 86.0, 169.4 82.3 Q 172.7 78.6, 179.0 78.6 Q 184.8 78.6, 188.0 82.7 L 185.3 84.9 Q 183.0 81.9, 179.0 81.9 Q 174.7 81.9, 172.4 84.8 Q 170.2 87.6, 170.2 93.0 Q 170.2 98.6, 172.5 101.5 Q 174.9 104.4, 179.4 104.4 Q 182.6 104.4, 186.2 102.5 L 187.3 105.5 Q 185.8 106.5, 183.6 107.0 Q 181.4 107.6, 178.9 107.6 Q 172.7 107.6, 169.4 103.8 Q 166.1 100.1, 166.1 93.0 " fill="#000000"/>
<path class="atom-0" d="M 191.7 78.9 L 195.6 78.9 L 195.6 91.0 L 210.1 91.0 L 210.1 78.9 L 213.9 78.9 L 213.9 107.2 L 210.1 107.2 L 210.1 94.2 L 195.6 94.2 L 195.6 107.2 L 191.7 107.2 L 191.7 78.9 " fill="#000000"/>
<path class="atom-0" d="M 231.6 115.0 L 233.9 115.0 L 233.9 117.1 L 231.6 117.1 L 231.6 121.4 L 229.2 121.4 L 229.2 117.1 L 219.5 117.1 L 219.5 115.4 L 227.7 102.7 L 231.6 102.7 L 231.6 115.0 M 222.6 115.0 L 229.2 115.0 L 229.2 104.4 L 222.6 115.0 " fill="#000000"/>
<rect x="1" y="5" width="18.0" height="18.0" fill="rgb(31, 119, 179)"/><text x="19.200000000000003" y="20" font-family="Helvetica" font-size="12" fill="black">CH4: 1</text><text x="200.0" y="40" font-family="Helvetica" font-size="12" font-weight="bold" fill="black" text-anchor="middle"/></svg>